<mxfile host="app.diagrams.net" agent="Mozilla/5.0 (Macintosh; Intel Mac OS X 10_15_7) AppleWebKit/537.36 (KHTML, like Gecko) Chrome/139.0.0.0 Safari/537.36" version="28.1.2">
  <diagram name="Page-1" id="h4QHuLDzoM3AsiZOy2b2">
    <mxGraphModel grid="1" page="1" gridSize="10" guides="1" tooltips="1" connect="1" arrows="1" fold="1" pageScale="1" pageWidth="827" pageHeight="1169" math="0" shadow="0">
      <root>
        <mxCell id="0" />
        <mxCell id="1" parent="0" />
        <mxCell id="ebBzsFreggs344WMEcYp-1" value="Pool" style="swimlane;html=1;childLayout=stackLayout;resizeParent=1;resizeParentMax=0;horizontal=0;startSize=20;horizontalStack=0;whiteSpace=wrap;" vertex="1" parent="1">
          <mxGeometry x="170" y="310" width="1960" height="530" as="geometry" />
        </mxCell>
        <UserObject label="GP Surgery" link="https://gettingitrightfirsttime.co.uk/wp-content/uploads/2024/03/BestPracticeTimedDiagnosticCancerPathwayssummary-guide-March-24-V3.pdf" id="ebBzsFreggs344WMEcYp-2">
          <mxCell style="swimlane;html=1;startSize=20;horizontal=0;" vertex="1" parent="ebBzsFreggs344WMEcYp-1">
            <mxGeometry x="20" width="1940" height="190" as="geometry" />
          </mxCell>
        </UserObject>
        <mxCell id="ebBzsFreggs344WMEcYp-7" style="edgeStyle=orthogonalEdgeStyle;rounded=0;orthogonalLoop=1;jettySize=auto;html=1;" edge="1" parent="ebBzsFreggs344WMEcYp-2" source="ebBzsFreggs344WMEcYp-5" target="ebBzsFreggs344WMEcYp-6">
          <mxGeometry relative="1" as="geometry" />
        </mxCell>
        <mxCell id="ebBzsFreggs344WMEcYp-5" value="" style="points=[[0.145,0.145,0],[0.5,0,0],[0.855,0.145,0],[1,0.5,0],[0.855,0.855,0],[0.5,1,0],[0.145,0.855,0],[0,0.5,0]];shape=mxgraph.bpmn.event;html=1;verticalLabelPosition=bottom;labelBackgroundColor=#ffffff;verticalAlign=top;align=center;perimeter=ellipsePerimeter;outlineConnect=0;aspect=fixed;outline=standard;symbol=general;" vertex="1" parent="ebBzsFreggs344WMEcYp-2">
          <mxGeometry x="50" y="35" width="50" height="50" as="geometry" />
        </mxCell>
        <mxCell id="ebBzsFreggs344WMEcYp-9" style="edgeStyle=orthogonalEdgeStyle;rounded=0;orthogonalLoop=1;jettySize=auto;html=1;" edge="1" parent="ebBzsFreggs344WMEcYp-2" source="ebBzsFreggs344WMEcYp-6" target="ebBzsFreggs344WMEcYp-8">
          <mxGeometry relative="1" as="geometry" />
        </mxCell>
        <mxCell id="ebBzsFreggs344WMEcYp-6" value="Patient Consultation" style="points=[[0.25,0,0],[0.5,0,0],[0.75,0,0],[1,0.25,0],[1,0.5,0],[1,0.75,0],[0.75,1,0],[0.5,1,0],[0.25,1,0],[0,0.75,0],[0,0.5,0],[0,0.25,0]];shape=mxgraph.bpmn.task2;whiteSpace=wrap;rectStyle=rounded;size=10;html=1;container=1;expand=0;collapsible=0;taskMarker=abstract;" vertex="1" parent="ebBzsFreggs344WMEcYp-2">
          <mxGeometry x="150" y="20" width="120" height="80" as="geometry" />
        </mxCell>
        <mxCell id="ebBzsFreggs344WMEcYp-10" style="edgeStyle=orthogonalEdgeStyle;rounded=0;orthogonalLoop=1;jettySize=auto;html=1;" edge="1" parent="ebBzsFreggs344WMEcYp-2" source="ebBzsFreggs344WMEcYp-8">
          <mxGeometry relative="1" as="geometry">
            <mxPoint x="355" y="10" as="targetPoint" />
          </mxGeometry>
        </mxCell>
        <mxCell id="ebBzsFreggs344WMEcYp-11" value="No" style="edgeLabel;html=1;align=center;verticalAlign=middle;resizable=0;points=[];" connectable="0" vertex="1" parent="ebBzsFreggs344WMEcYp-10">
          <mxGeometry x="0.7712" y="-2" relative="1" as="geometry">
            <mxPoint x="-3" y="4" as="offset" />
          </mxGeometry>
        </mxCell>
        <mxCell id="ebBzsFreggs344WMEcYp-13" style="edgeStyle=orthogonalEdgeStyle;rounded=0;orthogonalLoop=1;jettySize=auto;html=1;" edge="1" parent="ebBzsFreggs344WMEcYp-2" source="ebBzsFreggs344WMEcYp-8" target="ebBzsFreggs344WMEcYp-12">
          <mxGeometry relative="1" as="geometry" />
        </mxCell>
        <UserObject label="Patient Presenting with &lt;br&gt;NG12 Colorectal Symptoms&amp;nbsp;" link="https://www.nice.org.uk/guidance/ng12" id="ebBzsFreggs344WMEcYp-8">
          <mxCell style="points=[[0.25,0.25,0],[0.5,0,0],[0.75,0.25,0],[1,0.5,0],[0.75,0.75,0],[0.5,1,0],[0.25,0.75,0],[0,0.5,0]];shape=mxgraph.bpmn.gateway2;html=1;verticalLabelPosition=bottom;labelBackgroundColor=#ffffff;verticalAlign=top;align=center;perimeter=rhombusPerimeter;outlineConnect=0;outline=none;symbol=none;gwType=exclusive;" vertex="1" parent="ebBzsFreggs344WMEcYp-2">
            <mxGeometry x="330" y="35" width="50" height="50" as="geometry" />
          </mxCell>
        </UserObject>
        <mxCell id="ebBzsFreggs344WMEcYp-19" style="edgeStyle=orthogonalEdgeStyle;rounded=0;orthogonalLoop=1;jettySize=auto;html=1;" edge="1" parent="ebBzsFreggs344WMEcYp-2" source="ebBzsFreggs344WMEcYp-12" target="ebBzsFreggs344WMEcYp-17">
          <mxGeometry relative="1" as="geometry" />
        </mxCell>
        <mxCell id="ebBzsFreggs344WMEcYp-12" value="Full Blood Count (FBC)&lt;br&gt;Faecal immunochemical test (FIT)&amp;nbsp;" style="points=[[0.25,0,0],[0.5,0,0],[0.75,0,0],[1,0.25,0],[1,0.5,0],[1,0.75,0],[0.75,1,0],[0.5,1,0],[0.25,1,0],[0,0.75,0],[0,0.5,0],[0,0.25,0]];shape=mxgraph.bpmn.task2;whiteSpace=wrap;rectStyle=rounded;size=10;html=1;container=1;expand=0;collapsible=0;taskMarker=abstract;" vertex="1" parent="ebBzsFreggs344WMEcYp-2">
          <mxGeometry x="440" y="20" width="120" height="80" as="geometry" />
        </mxCell>
        <mxCell id="ebBzsFreggs344WMEcYp-22" style="edgeStyle=orthogonalEdgeStyle;rounded=0;orthogonalLoop=1;jettySize=auto;html=1;" edge="1" parent="ebBzsFreggs344WMEcYp-2" source="ebBzsFreggs344WMEcYp-17" target="ebBzsFreggs344WMEcYp-21">
          <mxGeometry relative="1" as="geometry" />
        </mxCell>
        <UserObject label="Meets Colorectal&amp;nbsp;&lt;div&gt;cancer diagnostic pathway&lt;/div&gt;" link="https://gettingitrightfirsttime.co.uk/wp-content/uploads/2024/03/BestPracticeTimedDiagnosticCancerPathwayssummary-guide-March-24-V3.pdf" id="ebBzsFreggs344WMEcYp-17">
          <mxCell style="points=[[0.25,0.25,0],[0.5,0,0],[0.75,0.25,0],[1,0.5,0],[0.75,0.75,0],[0.5,1,0],[0.25,0.75,0],[0,0.5,0]];shape=mxgraph.bpmn.gateway2;html=1;verticalLabelPosition=bottom;labelBackgroundColor=#ffffff;verticalAlign=top;align=center;perimeter=rhombusPerimeter;outlineConnect=0;outline=none;symbol=none;gwType=exclusive;" vertex="1" parent="ebBzsFreggs344WMEcYp-2">
            <mxGeometry x="640" y="35" width="50" height="50" as="geometry" />
          </mxCell>
        </UserObject>
        <mxCell id="ebBzsFreggs344WMEcYp-20" value="IHE LTW&amp;nbsp;&lt;br&gt;(HL7 v2)" style="rounded=0;whiteSpace=wrap;html=1;fillColor=#e1d5e7;strokeColor=#9673a6;" vertex="1" parent="ebBzsFreggs344WMEcYp-2">
          <mxGeometry x="440" y="140" width="120" height="30" as="geometry" />
        </mxCell>
        <mxCell id="ZK1Klg-z9rnJ1v-QrYSl-3" style="edgeStyle=orthogonalEdgeStyle;rounded=0;orthogonalLoop=1;jettySize=auto;html=1;" edge="1" parent="ebBzsFreggs344WMEcYp-2" source="ebBzsFreggs344WMEcYp-21" target="ZK1Klg-z9rnJ1v-QrYSl-2">
          <mxGeometry relative="1" as="geometry" />
        </mxCell>
        <mxCell id="ebBzsFreggs344WMEcYp-21" value="Create Referral" style="points=[[0.25,0,0],[0.5,0,0],[0.75,0,0],[1,0.25,0],[1,0.5,0],[1,0.75,0],[0.75,1,0],[0.5,1,0],[0.25,1,0],[0,0.75,0],[0,0.5,0],[0,0.25,0]];shape=mxgraph.bpmn.task2;whiteSpace=wrap;rectStyle=rounded;size=10;html=1;container=1;expand=0;collapsible=0;taskMarker=abstract;" vertex="1" parent="ebBzsFreggs344WMEcYp-2">
          <mxGeometry x="790" y="20" width="120" height="80" as="geometry" />
        </mxCell>
        <mxCell id="cbGTD4vIU7MyVdIxbExD-1" value="IHE 360X&lt;br&gt;HL7 v2 OMG_O19 or eRS&lt;span style=&quot;background-color: transparent; color: light-dark(rgb(0, 0, 0), rgb(255, 255, 255));&quot;&gt;&amp;nbsp;&lt;/span&gt;" style="rounded=0;whiteSpace=wrap;html=1;fillColor=#e1d5e7;strokeColor=#9673a6;" vertex="1" parent="ebBzsFreggs344WMEcYp-2">
          <mxGeometry x="775" y="150" width="150" height="30" as="geometry" />
        </mxCell>
        <mxCell id="ZK1Klg-z9rnJ1v-QrYSl-7" style="edgeStyle=orthogonalEdgeStyle;rounded=0;orthogonalLoop=1;jettySize=auto;html=1;" edge="1" parent="ebBzsFreggs344WMEcYp-2" source="ZK1Klg-z9rnJ1v-QrYSl-2" target="ZK1Klg-z9rnJ1v-QrYSl-6">
          <mxGeometry relative="1" as="geometry" />
        </mxCell>
        <mxCell id="ZK1Klg-z9rnJ1v-QrYSl-2" value="Receive Consultation Note" style="points=[[0.25,0,0],[0.5,0,0],[0.75,0,0],[1,0.25,0],[1,0.5,0],[1,0.75,0],[0.75,1,0],[0.5,1,0],[0.25,1,0],[0,0.75,0],[0,0.5,0],[0,0.25,0]];shape=mxgraph.bpmn.task2;whiteSpace=wrap;rectStyle=rounded;size=10;html=1;container=1;expand=0;collapsible=0;taskMarker=abstract;" vertex="1" parent="ebBzsFreggs344WMEcYp-2">
          <mxGeometry x="1290" y="20" width="120" height="80" as="geometry" />
        </mxCell>
        <mxCell id="ZK1Klg-z9rnJ1v-QrYSl-6" value="Receive Discharge Summary" style="points=[[0.25,0,0],[0.5,0,0],[0.75,0,0],[1,0.25,0],[1,0.5,0],[1,0.75,0],[0.75,1,0],[0.5,1,0],[0.25,1,0],[0,0.75,0],[0,0.5,0],[0,0.25,0]];shape=mxgraph.bpmn.task2;whiteSpace=wrap;rectStyle=rounded;size=10;html=1;container=1;expand=0;collapsible=0;taskMarker=abstract;" vertex="1" parent="ebBzsFreggs344WMEcYp-2">
          <mxGeometry x="1595" y="20" width="120" height="80" as="geometry" />
        </mxCell>
        <mxCell id="ebBzsFreggs344WMEcYp-3" value="Diagnostics" style="swimlane;html=1;startSize=20;horizontal=0;" vertex="1" parent="ebBzsFreggs344WMEcYp-1">
          <mxGeometry x="20" y="190" width="1940" height="120" as="geometry" />
        </mxCell>
        <mxCell id="ebBzsFreggs344WMEcYp-14" value="Perform Diagnostic Test&lt;br&gt;(Laboratory)" style="points=[[0.25,0,0],[0.5,0,0],[0.75,0,0],[1,0.25,0],[1,0.5,0],[1,0.75,0],[0.75,1,0],[0.5,1,0],[0.25,1,0],[0,0.75,0],[0,0.5,0],[0,0.25,0]];shape=mxgraph.bpmn.task2;whiteSpace=wrap;rectStyle=rounded;size=10;html=1;container=1;expand=0;collapsible=0;taskMarker=abstract;" vertex="1" parent="ebBzsFreggs344WMEcYp-3">
          <mxGeometry x="440" y="30" width="120" height="80" as="geometry" />
        </mxCell>
        <mxCell id="ebBzsFreggs344WMEcYp-27" value="Referral Request&lt;br&gt;(Referral Minimum Dataset)" style="shape=mxgraph.bpmn.data2;labelPosition=center;verticalLabelPosition=bottom;align=center;verticalAlign=top;size=15;html=1;bpmnTransferType=output;fillColor=#dae8fc;strokeColor=#6c8ebf;" vertex="1" parent="ebBzsFreggs344WMEcYp-3">
          <mxGeometry x="790" y="20" width="40" height="60" as="geometry" />
        </mxCell>
        <mxCell id="ebBzsFreggs344WMEcYp-30" value="Perform Diagnostic Tests&lt;br&gt;(Laboratory + Imaging)" style="points=[[0.25,0,0],[0.5,0,0],[0.75,0,0],[1,0.25,0],[1,0.5,0],[1,0.75,0],[0.75,1,0],[0.5,1,0],[0.25,1,0],[0,0.75,0],[0,0.5,0],[0,0.25,0]];shape=mxgraph.bpmn.task2;whiteSpace=wrap;rectStyle=rounded;size=10;html=1;container=1;expand=0;collapsible=0;taskMarker=abstract;" vertex="1" parent="ebBzsFreggs344WMEcYp-3">
          <mxGeometry x="1120" y="25" width="120" height="80" as="geometry" />
        </mxCell>
        <mxCell id="ebBzsFreggs344WMEcYp-46" value="Consultation Note" style="shape=mxgraph.bpmn.data2;labelPosition=center;verticalLabelPosition=bottom;align=center;verticalAlign=top;size=15;html=1;bpmnTransferType=output;fillColor=#dae8fc;strokeColor=#6c8ebf;" vertex="1" parent="ebBzsFreggs344WMEcYp-3">
          <mxGeometry x="1280" y="25" width="40" height="60" as="geometry" />
        </mxCell>
        <mxCell id="ebBzsFreggs344WMEcYp-55" value="Perform Genomics Diagnostic Tests&lt;br&gt;(R.210 + M.19)&lt;br&gt;POLE POLD1" style="points=[[0.25,0,0],[0.5,0,0],[0.75,0,0],[1,0.25,0],[1,0.5,0],[1,0.75,0],[0.75,1,0],[0.5,1,0],[0.25,1,0],[0,0.75,0],[0,0.5,0],[0,0.25,0]];shape=mxgraph.bpmn.task2;whiteSpace=wrap;rectStyle=rounded;size=10;html=1;container=1;expand=0;collapsible=0;taskMarker=abstract;" vertex="1" parent="ebBzsFreggs344WMEcYp-3">
          <mxGeometry x="1465" y="25" width="120" height="80" as="geometry" />
        </mxCell>
        <mxCell id="ebBzsFreggs344WMEcYp-45" value="Diagnostic&amp;nbsp;&lt;br&gt;Discharge Summary&lt;br&gt;(Referral Result)" style="shape=mxgraph.bpmn.data2;labelPosition=center;verticalLabelPosition=bottom;align=center;verticalAlign=top;size=8;html=1;bpmnTransferType=output;fillColor=#dae8fc;strokeColor=#6c8ebf;" vertex="1" parent="ebBzsFreggs344WMEcYp-3">
          <mxGeometry x="1700" y="10" width="40" height="60" as="geometry" />
        </mxCell>
        <mxCell id="ZK1Klg-z9rnJ1v-QrYSl-9" value="Laboratory/Imaging&amp;nbsp;&lt;div&gt;Report&lt;/div&gt;" style="shape=mxgraph.bpmn.data2;labelPosition=center;verticalLabelPosition=bottom;align=center;verticalAlign=top;size=15;html=1;bpmnTransferType=output;fillColor=#dae8fc;strokeColor=#6c8ebf;" vertex="1" parent="ebBzsFreggs344WMEcYp-3">
          <mxGeometry x="1040" y="20" width="40" height="60" as="geometry" />
        </mxCell>
        <mxCell id="ZK1Klg-z9rnJ1v-QrYSl-11" value="Laboratory&amp;nbsp;&lt;div&gt;Report&lt;/div&gt;" style="shape=mxgraph.bpmn.data2;labelPosition=center;verticalLabelPosition=bottom;align=center;verticalAlign=top;size=15;html=1;bpmnTransferType=output;fillColor=#dae8fc;strokeColor=#6c8ebf;" vertex="1" parent="ebBzsFreggs344WMEcYp-3">
          <mxGeometry x="380" y="20" width="40" height="60" as="geometry" />
        </mxCell>
        <mxCell id="ZK1Klg-z9rnJ1v-QrYSl-10" value="Laboratory&amp;nbsp;&lt;div&gt;Report&lt;/div&gt;" style="shape=mxgraph.bpmn.data2;labelPosition=center;verticalLabelPosition=bottom;align=center;verticalAlign=top;size=15;html=1;bpmnTransferType=output;fillColor=#dae8fc;strokeColor=#6c8ebf;" vertex="1" parent="ebBzsFreggs344WMEcYp-3">
          <mxGeometry x="1410" y="20" width="40" height="60" as="geometry" />
        </mxCell>
        <mxCell id="ebBzsFreggs344WMEcYp-4" value="Local Diagnostic&amp;nbsp; Cemtre" style="swimlane;html=1;startSize=20;horizontal=0;" vertex="1" parent="ebBzsFreggs344WMEcYp-1">
          <mxGeometry x="20" y="310" width="1940" height="220" as="geometry" />
        </mxCell>
        <mxCell id="ebBzsFreggs344WMEcYp-25" value="" style="points=[[0.145,0.145,0],[0.5,0,0],[0.855,0.145,0],[1,0.5,0],[0.855,0.855,0],[0.5,1,0],[0.145,0.855,0],[0,0.5,0]];shape=mxgraph.bpmn.event;html=1;verticalLabelPosition=bottom;labelBackgroundColor=#ffffff;verticalAlign=top;align=center;perimeter=ellipsePerimeter;outlineConnect=0;aspect=fixed;outline=standard;symbol=general;" vertex="1" parent="ebBzsFreggs344WMEcYp-4">
          <mxGeometry x="825" y="75" width="50" height="50" as="geometry" />
        </mxCell>
        <mxCell id="ebBzsFreggs344WMEcYp-28" value="Clinical Triage" style="points=[[0.25,0,0],[0.5,0,0],[0.75,0,0],[1,0.25,0],[1,0.5,0],[1,0.75,0],[0.75,1,0],[0.5,1,0],[0.25,1,0],[0,0.75,0],[0,0.5,0],[0,0.25,0]];shape=mxgraph.bpmn.task2;whiteSpace=wrap;rectStyle=rounded;size=10;html=1;container=1;expand=0;collapsible=0;taskMarker=abstract;" vertex="1" parent="ebBzsFreggs344WMEcYp-4">
          <mxGeometry x="950" y="60" width="120" height="80" as="geometry" />
        </mxCell>
        <mxCell id="ebBzsFreggs344WMEcYp-29" style="edgeStyle=orthogonalEdgeStyle;rounded=0;orthogonalLoop=1;jettySize=auto;html=1;entryX=0;entryY=0.5;entryDx=0;entryDy=0;entryPerimeter=0;" edge="1" parent="ebBzsFreggs344WMEcYp-4" source="ebBzsFreggs344WMEcYp-25" target="ebBzsFreggs344WMEcYp-28">
          <mxGeometry relative="1" as="geometry" />
        </mxCell>
        <mxCell id="ebBzsFreggs344WMEcYp-35" value="IHE LTW + RAD&amp;nbsp;&lt;br&gt;(HL7 v2 OML/OMG/ORU)" style="rounded=0;whiteSpace=wrap;html=1;fillColor=#e1d5e7;strokeColor=#9673a6;" vertex="1" parent="ebBzsFreggs344WMEcYp-4">
          <mxGeometry x="1110" y="10" width="140" height="30" as="geometry" />
        </mxCell>
        <mxCell id="ebBzsFreggs344WMEcYp-39" style="edgeStyle=orthogonalEdgeStyle;rounded=0;orthogonalLoop=1;jettySize=auto;html=1;" edge="1" parent="ebBzsFreggs344WMEcYp-4" source="ebBzsFreggs344WMEcYp-36" target="ebBzsFreggs344WMEcYp-38">
          <mxGeometry relative="1" as="geometry" />
        </mxCell>
        <mxCell id="ebBzsFreggs344WMEcYp-36" value="Straight to Test" style="points=[[0.25,0,0],[0.5,0,0],[0.75,0,0],[1,0.25,0],[1,0.5,0],[1,0.75,0],[0.75,1,0],[0.5,1,0],[0.25,1,0],[0,0.75,0],[0,0.5,0],[0,0.25,0]];shape=mxgraph.bpmn.task2;whiteSpace=wrap;rectStyle=rounded;size=10;html=1;container=1;expand=0;collapsible=0;taskMarker=abstract;" vertex="1" parent="ebBzsFreggs344WMEcYp-4">
          <mxGeometry x="1120" y="60" width="120" height="80" as="geometry" />
        </mxCell>
        <mxCell id="ebBzsFreggs344WMEcYp-37" style="edgeStyle=orthogonalEdgeStyle;rounded=0;orthogonalLoop=1;jettySize=auto;html=1;entryX=0;entryY=0.5;entryDx=0;entryDy=0;entryPerimeter=0;" edge="1" parent="ebBzsFreggs344WMEcYp-4" source="ebBzsFreggs344WMEcYp-28" target="ebBzsFreggs344WMEcYp-36">
          <mxGeometry relative="1" as="geometry" />
        </mxCell>
        <mxCell id="ebBzsFreggs344WMEcYp-41" style="edgeStyle=orthogonalEdgeStyle;rounded=0;orthogonalLoop=1;jettySize=auto;html=1;" edge="1" parent="ebBzsFreggs344WMEcYp-4" source="ebBzsFreggs344WMEcYp-42" target="ebBzsFreggs344WMEcYp-40">
          <mxGeometry relative="1" as="geometry" />
        </mxCell>
        <mxCell id="ebBzsFreggs344WMEcYp-38" value="Straight to Staging" style="points=[[0.25,0,0],[0.5,0,0],[0.75,0,0],[1,0.25,0],[1,0.5,0],[1,0.75,0],[0.75,1,0],[0.5,1,0],[0.25,1,0],[0,0.75,0],[0,0.5,0],[0,0.25,0]];shape=mxgraph.bpmn.task2;whiteSpace=wrap;rectStyle=rounded;size=10;html=1;container=1;expand=0;collapsible=0;taskMarker=abstract;" vertex="1" parent="ebBzsFreggs344WMEcYp-4">
          <mxGeometry x="1290" y="60" width="120" height="80" as="geometry" />
        </mxCell>
        <mxCell id="ebBzsFreggs344WMEcYp-48" value="IHE 360X PCC-59&amp;nbsp;&lt;br&gt;(HL7 v2 OSU_51)" style="rounded=0;whiteSpace=wrap;html=1;fillColor=#e1d5e7;strokeColor=#9673a6;" vertex="1" parent="ebBzsFreggs344WMEcYp-4">
          <mxGeometry x="1290" y="10" width="120" height="30" as="geometry" />
        </mxCell>
        <mxCell id="ebBzsFreggs344WMEcYp-43" style="edgeStyle=orthogonalEdgeStyle;rounded=0;orthogonalLoop=1;jettySize=auto;html=1;" edge="1" parent="ebBzsFreggs344WMEcYp-4" source="ebBzsFreggs344WMEcYp-40" target="ebBzsFreggs344WMEcYp-42">
          <mxGeometry relative="1" as="geometry" />
        </mxCell>
        <mxCell id="ebBzsFreggs344WMEcYp-40" value="Multi Disciplinary Team" style="points=[[0.25,0,0],[0.5,0,0],[0.75,0,0],[1,0.25,0],[1,0.5,0],[1,0.75,0],[0.75,1,0],[0.5,1,0],[0.25,1,0],[0,0.75,0],[0,0.5,0],[0,0.25,0]];shape=mxgraph.bpmn.task2;whiteSpace=wrap;rectStyle=rounded;size=10;html=1;container=1;expand=0;collapsible=0;taskMarker=abstract;" vertex="1" parent="ebBzsFreggs344WMEcYp-4">
          <mxGeometry x="1790" y="60" width="120" height="80" as="geometry" />
        </mxCell>
        <mxCell id="ebBzsFreggs344WMEcYp-49" value="IHE 360X PCC-57&lt;br&gt;(HL7 v2 OSU_O51)" style="rounded=0;whiteSpace=wrap;html=1;fillColor=#e1d5e7;strokeColor=#9673a6;" vertex="1" parent="ebBzsFreggs344WMEcYp-4">
          <mxGeometry x="1600" y="10" width="120" height="30" as="geometry" />
        </mxCell>
        <mxCell id="ZK1Klg-z9rnJ1v-QrYSl-5" style="edgeStyle=orthogonalEdgeStyle;rounded=0;orthogonalLoop=1;jettySize=auto;html=1;" edge="1" parent="ebBzsFreggs344WMEcYp-4" source="ebBzsFreggs344WMEcYp-50" target="ebBzsFreggs344WMEcYp-42">
          <mxGeometry relative="1" as="geometry" />
        </mxCell>
        <UserObject label="Meets Lync Syndrome Criteria" link="https://www.nice.org.uk/guidance/dg27" id="ebBzsFreggs344WMEcYp-50">
          <mxCell style="points=[[0.25,0.25,0],[0.5,0,0],[0.75,0.25,0],[1,0.5,0],[0.75,0.75,0],[0.5,1,0],[0.25,0.75,0],[0,0.5,0]];shape=mxgraph.bpmn.gateway2;html=1;verticalLabelPosition=bottom;labelBackgroundColor=#ffffff;verticalAlign=top;align=center;perimeter=rhombusPerimeter;outlineConnect=0;outline=none;symbol=none;gwType=exclusive;" vertex="1" parent="ebBzsFreggs344WMEcYp-4">
            <mxGeometry x="1500" y="75" width="50" height="50" as="geometry" />
          </mxCell>
        </UserObject>
        <mxCell id="ebBzsFreggs344WMEcYp-51" style="edgeStyle=orthogonalEdgeStyle;rounded=0;orthogonalLoop=1;jettySize=auto;html=1;" edge="1" parent="ebBzsFreggs344WMEcYp-4" source="ebBzsFreggs344WMEcYp-38" target="ebBzsFreggs344WMEcYp-50">
          <mxGeometry relative="1" as="geometry" />
        </mxCell>
        <mxCell id="ebBzsFreggs344WMEcYp-52" value="" style="edgeStyle=orthogonalEdgeStyle;rounded=0;orthogonalLoop=1;jettySize=auto;html=1;" edge="1" parent="ebBzsFreggs344WMEcYp-4" source="ebBzsFreggs344WMEcYp-38" target="ebBzsFreggs344WMEcYp-50">
          <mxGeometry relative="1" as="geometry">
            <mxPoint x="1600" y="720" as="sourcePoint" />
            <mxPoint x="1780" y="720" as="targetPoint" />
          </mxGeometry>
        </mxCell>
        <mxCell id="ebBzsFreggs344WMEcYp-57" value="IHE LTW&lt;br&gt;(HL7 FHIR)" style="rounded=0;whiteSpace=wrap;html=1;fillColor=#e1d5e7;strokeColor=#9673a6;" vertex="1" parent="ebBzsFreggs344WMEcYp-4">
          <mxGeometry x="1455" y="10" width="140" height="30" as="geometry" />
        </mxCell>
        <mxCell id="ebBzsFreggs344WMEcYp-42" value="Discharge from&amp;nbsp;&lt;div&gt;Diagnostic Stage&lt;/div&gt;" style="points=[[0.145,0.145,0],[0.5,0,0],[0.855,0.145,0],[1,0.5,0],[0.855,0.855,0],[0.5,1,0],[0.145,0.855,0],[0,0.5,0]];shape=mxgraph.bpmn.event;html=1;verticalLabelPosition=bottom;labelBackgroundColor=#ffffff;verticalAlign=top;align=center;perimeter=ellipsePerimeter;outlineConnect=0;aspect=fixed;outline=end;symbol=terminate2;" vertex="1" parent="ebBzsFreggs344WMEcYp-4">
          <mxGeometry x="1630" y="75" width="50" height="50" as="geometry" />
        </mxCell>
        <mxCell id="ebBzsFreggs344WMEcYp-15" style="edgeStyle=orthogonalEdgeStyle;rounded=0;orthogonalLoop=1;jettySize=auto;html=1;entryX=0.25;entryY=0;entryDx=0;entryDy=0;entryPerimeter=0;exitX=0.25;exitY=1;exitDx=0;exitDy=0;exitPerimeter=0;" edge="1" parent="ebBzsFreggs344WMEcYp-1" source="ebBzsFreggs344WMEcYp-12" target="ebBzsFreggs344WMEcYp-14">
          <mxGeometry relative="1" as="geometry" />
        </mxCell>
        <mxCell id="ebBzsFreggs344WMEcYp-16" style="edgeStyle=orthogonalEdgeStyle;rounded=0;orthogonalLoop=1;jettySize=auto;html=1;entryX=0.75;entryY=1;entryDx=0;entryDy=0;entryPerimeter=0;exitX=0.75;exitY=0;exitDx=0;exitDy=0;exitPerimeter=0;" edge="1" parent="ebBzsFreggs344WMEcYp-1" source="ebBzsFreggs344WMEcYp-14" target="ebBzsFreggs344WMEcYp-12">
          <mxGeometry relative="1" as="geometry" />
        </mxCell>
        <mxCell id="ebBzsFreggs344WMEcYp-26" style="edgeStyle=orthogonalEdgeStyle;rounded=0;orthogonalLoop=1;jettySize=auto;html=1;" edge="1" parent="ebBzsFreggs344WMEcYp-1" source="ebBzsFreggs344WMEcYp-21" target="ebBzsFreggs344WMEcYp-25">
          <mxGeometry relative="1" as="geometry" />
        </mxCell>
        <mxCell id="ebBzsFreggs344WMEcYp-31" style="edgeStyle=orthogonalEdgeStyle;rounded=0;orthogonalLoop=1;jettySize=auto;html=1;entryX=0.25;entryY=1;entryDx=0;entryDy=0;entryPerimeter=0;exitX=0.25;exitY=0;exitDx=0;exitDy=0;exitPerimeter=0;" edge="1" parent="ebBzsFreggs344WMEcYp-1" source="ebBzsFreggs344WMEcYp-36" target="ebBzsFreggs344WMEcYp-30">
          <mxGeometry relative="1" as="geometry" />
        </mxCell>
        <mxCell id="ebBzsFreggs344WMEcYp-32" style="edgeStyle=orthogonalEdgeStyle;rounded=0;orthogonalLoop=1;jettySize=auto;html=1;entryX=0.75;entryY=0;entryDx=0;entryDy=0;entryPerimeter=0;exitX=0.75;exitY=1;exitDx=0;exitDy=0;exitPerimeter=0;" edge="1" parent="ebBzsFreggs344WMEcYp-1" source="ebBzsFreggs344WMEcYp-30" target="ebBzsFreggs344WMEcYp-36">
          <mxGeometry relative="1" as="geometry" />
        </mxCell>
        <mxCell id="ebBzsFreggs344WMEcYp-54" value="" style="edgeStyle=orthogonalEdgeStyle;rounded=0;orthogonalLoop=1;jettySize=auto;html=1;entryX=0.5;entryY=1;entryDx=0;entryDy=0;entryPerimeter=0;" edge="1" parent="ebBzsFreggs344WMEcYp-1" source="ebBzsFreggs344WMEcYp-50" target="ebBzsFreggs344WMEcYp-55">
          <mxGeometry relative="1" as="geometry">
            <mxPoint x="1515" y="310" as="targetPoint" />
          </mxGeometry>
        </mxCell>
        <mxCell id="ebBzsFreggs344WMEcYp-56" style="edgeStyle=orthogonalEdgeStyle;rounded=0;orthogonalLoop=1;jettySize=auto;html=1;" edge="1" parent="ebBzsFreggs344WMEcYp-1" source="ebBzsFreggs344WMEcYp-55" target="ebBzsFreggs344WMEcYp-50">
          <mxGeometry relative="1" as="geometry" />
        </mxCell>
        <mxCell id="ebBzsFreggs344WMEcYp-47" style="edgeStyle=orthogonalEdgeStyle;rounded=0;orthogonalLoop=1;jettySize=auto;html=1;entryX=0.5;entryY=1;entryDx=0;entryDy=0;entryPerimeter=0;" edge="1" parent="ebBzsFreggs344WMEcYp-1" source="ebBzsFreggs344WMEcYp-38" target="ZK1Klg-z9rnJ1v-QrYSl-2">
          <mxGeometry relative="1" as="geometry">
            <mxPoint x="1370" y="130" as="targetPoint" />
          </mxGeometry>
        </mxCell>
        <mxCell id="ebBzsFreggs344WMEcYp-44" style="edgeStyle=orthogonalEdgeStyle;rounded=0;orthogonalLoop=1;jettySize=auto;html=1;entryX=0.5;entryY=1;entryDx=0;entryDy=0;entryPerimeter=0;" edge="1" parent="ebBzsFreggs344WMEcYp-1" source="ebBzsFreggs344WMEcYp-42" target="ZK1Klg-z9rnJ1v-QrYSl-6">
          <mxGeometry relative="1" as="geometry">
            <mxPoint x="1670" y="90" as="targetPoint" />
          </mxGeometry>
        </mxCell>
        <mxCell id="ebBzsFreggs344WMEcYp-58" value="&lt;font style=&quot;font-size: 27px;&quot;&gt;Electronic Referrals for Integrated Care&lt;br&gt;(Colorectal Example)&amp;nbsp;&lt;/font&gt;" style="text;html=1;align=center;verticalAlign=middle;whiteSpace=wrap;rounded=0;" vertex="1" parent="1">
          <mxGeometry x="780" y="180" width="810" height="110" as="geometry" />
        </mxCell>
      </root>
    </mxGraphModel>
  </diagram>
</mxfile>
